<?xml version="1.0" encoding="UTF-8"?>
<svg version="1.1" xmlns="http://www.w3.org/2000/svg" width="458" height="376">
<path d="M0 0 C151.14 0 302.28 0 458 0 C458 124.08 458 248.16 458 376 C306.86 376 155.72 376 0 376 C0 251.92 0 127.84 0 0 Z " fill="#152F44" transform="translate(0,0)"/>
<path d="M0 0 C151.14 0 302.28 0 458 0 C458 124.08 458 248.16 458 376 C306.86 376 155.72 376 0 376 C0 251.92 0 127.84 0 0 Z M114 23 C111.48970177 27.01516288 111.76027388 31.20139253 111.875 35.8125 C111.88402344 36.50537109 111.89304687 37.19824219 111.90234375 37.91210938 C111.92573843 39.60822395 111.96160359 41.30415871 112 43 C110.85402344 42.96519531 109.70804687 42.93039063 108.52734375 42.89453125 C106.99741061 42.86637297 105.46746146 42.83907501 103.9375 42.8125 C102.80924805 42.77479492 102.80924805 42.77479492 101.65820312 42.73632812 C91.60321775 42.6057439 84.58751802 47.94012667 76.3125 53.125 C74.00137317 54.56471286 71.68826676 56.00122867 69.375 57.4375 C68.77839066 57.80851837 68.18178131 58.17953674 67.5670929 58.5617981 C63.17235037 61.28926146 58.74969259 63.96725354 54.3125 66.625 C53.04645868 67.38523823 51.78042669 68.14549198 50.5144043 68.90576172 C48.68218335 70.00561571 46.84888959 71.10339401 45.01138306 72.19439697 C34.09625841 77.81444033 34.09625841 77.81444033 26.33574963 86.68171787 C25.84520803 90.06880669 25.85917734 93.43599732 25.86628723 96.85032654 C25.86402167 97.64650912 25.86175612 98.4426917 25.85942191 99.26300102 C25.85308635 101.93373088 25.85391099 104.60440994 25.85473633 107.27514648 C25.85174459 109.18878241 25.84834203 111.10241772 25.84455872 113.01605225 C25.83571672 118.2164017 25.83338054 123.4167347 25.83274293 128.61709094 C25.83179393 132.95620525 25.82811578 137.29531572 25.82457083 141.63442856 C25.81642576 151.86965031 25.81398667 162.10486327 25.81469727 172.34008789 C25.81529831 182.90444962 25.80474132 193.46876032 25.7889536 204.03310913 C25.77588713 213.09901274 25.77051298 222.16489965 25.77115268 231.23081261 C25.7714079 236.64736191 25.76854338 242.06386587 25.75797462 247.48040581 C25.74830851 252.573417 25.74820425 257.66633935 25.75549126 262.75935364 C25.7565389 264.62943717 25.75416359 266.4995262 25.7481308 268.3696003 C25.74043338 270.92073526 25.7450407 273.47156168 25.75276184 276.02268982 C25.74761828 276.76413205 25.74247471 277.50557428 25.73717529 278.26948446 C25.76879763 282.99173379 26.12731974 286.98483319 29.4375 290.546875 C34.42554718 294.38767133 37.03645968 295.14504451 43.20361328 295.11352539 C43.9451767 295.11367142 44.68674011 295.11381744 45.45077515 295.1139679 C47.90731713 295.11327 50.36378373 295.10548334 52.8203125 295.09765625 C54.5213924 295.09579163 56.22247284 295.09436794 57.92355347 295.09336853 C62.40506467 295.08954678 66.88654357 295.0797194 71.36804199 295.06866455 C75.9393673 295.05844308 80.51069781 295.05386933 85.08203125 295.04882812 C94.05470171 295.03809685 103.02734817 295.02102451 112 295 C111.99555878 295.70077667 111.99111755 296.40155334 111.98654175 297.12356567 C111.94638412 303.74394315 111.91597458 310.36428638 111.89637566 316.98475838 C111.88596076 320.38800397 111.87184381 323.7911485 111.84912109 327.19433594 C111.823133 331.11131561 111.81350822 335.02825507 111.8046875 338.9453125 C111.79436493 340.16115021 111.78404236 341.37698792 111.77340698 342.62966919 C111.77325592 343.77039886 111.77310486 344.91112854 111.77294922 346.08642578 C111.768508 347.08570099 111.76406677 348.0849762 111.75949097 349.11453247 C112.08356487 353.00255573 112.87420446 356.58865282 115.33984375 359.6796875 C119.63670955 362.89445751 123.47415164 364.01737094 128.84375 363.70703125 C135.01503677 362.32460191 140.11466061 358.91348803 145.42138672 355.60498047 C148.30952671 353.80734438 151.21749563 352.04484905 154.12890625 350.28515625 C157.62430175 348.17075803 161.11840624 346.05453649 164.60522461 343.92602539 C173.69469039 338.37854581 182.83528882 332.9221123 192 327.5 C202.53455766 321.26463583 213.03857964 314.98238944 223.5 308.625 C224.08136719 308.27187744 224.66273438 307.91875488 225.26171875 307.55493164 C231.595642 303.85652228 231.595642 303.85652228 237.65441895 299.74881649 C243.37232433 295.64147412 248.06313051 295.30071085 254.97070312 295.40405273 C256.04166733 295.3999942 257.11263153 295.39593567 258.21604919 295.39175415 C260.53005486 295.38625401 262.84411043 295.39219699 265.1580658 295.40841484 C268.8241978 295.43389221 272.48920865 295.42901714 276.15539551 295.41651917 C283.93705438 295.3958007 291.71836417 295.41544042 299.5 295.4375 C308.52021892 295.45862366 317.54007615 295.46314561 326.56028748 295.43699837 C330.16549145 295.43364331 333.77000038 295.45483965 337.37512207 295.47740173 C339.59318186 295.4748898 341.8112408 295.47132909 344.02929688 295.46655273 C345.02589828 295.47943832 346.02249969 295.49232391 347.04930115 295.50559998 C353.33655255 295.46055755 357.65926782 294.31892247 363 291 C363.8154126 290.52965332 364.6308252 290.05930664 365.47094727 289.57470703 C366.16244873 289.14013184 366.8539502 288.70555664 367.56640625 288.2578125 C368.37021729 287.75596436 369.17402832 287.25411621 370.00219727 286.73706055 C370.84709717 286.20508057 371.69199707 285.67310059 372.5625 285.125 C374.41610967 283.9665562 376.270298 282.8090379 378.125 281.65234375 C379.0840625 281.05405762 380.043125 280.45577148 381.03125 279.83935547 C385.03079075 277.36135054 389.05520194 274.92550998 393.08129883 272.4909668 C408.83780744 264.71480858 408.83780744 264.71480858 420 253 C420.66 253 421.32 253 422 253 C423.2125587 249.3623239 423.14810225 246.02598089 423.14717102 242.23869324 C423.15268605 241.04063402 423.15268605 241.04063402 423.1583125 239.81837159 C423.16935511 237.13305833 423.17319414 234.44778375 423.17700195 231.76245117 C423.18326609 229.84073259 423.18991285 227.91901523 423.19691467 225.99729919 C423.21432716 220.76997218 423.22487681 215.5426543 423.2331202 210.31530547 C423.23826914 207.05064405 423.24434488 203.78598548 423.25063133 200.52132607 C423.2696829 190.31033473 423.28391491 180.09935064 423.2922433 169.88834494 C423.30202085 158.09489465 423.3283541 146.30163179 423.36874419 134.50824755 C423.39888138 125.39648979 423.41370984 116.28478583 423.41702431 107.17297918 C423.41937724 101.72893005 423.42836953 96.28508117 423.45348549 90.84108543 C423.47672967 85.72010871 423.48101412 80.59946462 423.47072411 75.47844887 C423.47022777 73.59910095 423.47657693 71.71973686 423.49028015 69.84043884 C423.50794673 67.27397842 423.50091919 64.70871855 423.48774719 62.14225769 C423.49871644 61.39915523 423.50968568 60.65605277 423.52098733 59.89043206 C423.45757675 54.77051048 422.31718495 51.8783126 419 48 C414.0678801 43.68917911 410.1720887 43.43219862 403.92642212 43.51898193 C403.02291405 43.51556423 402.11940598 43.51214653 401.18851888 43.50862527 C398.16653302 43.5020462 395.14543894 43.52402315 392.12353516 43.54589844 C389.95519024 43.54702691 387.78684379 43.54639306 385.61849976 43.54412842 C379.7346113 43.54298034 373.85104874 43.56650529 367.96723604 43.59442425 C361.81731599 43.61942196 355.66738855 43.62177863 349.51742554 43.62652588 C337.87278322 43.63896041 326.22829104 43.67178863 314.58371484 43.71192384 C301.32629167 43.75662657 288.06886135 43.77862485 274.81138158 43.79870558 C247.5408378 43.84052071 220.27042731 43.9108822 193 44 C193.00725098 43.03650635 193.01450195 42.0730127 193.02197266 41.08032227 C193.0276123 39.81760498 193.03325195 38.5548877 193.0390625 37.25390625 C193.04631348 36.0016626 193.05356445 34.74941895 193.06103516 33.45922852 C192.97977236 28.85357806 192.9031546 25.07765588 189.63671875 21.51171875 C185.27519534 17.669682 181.92364871 16.87784528 176.27856445 16.79125977 C175.10336746 16.77196915 173.92817047 16.75267853 172.71736145 16.73280334 C167.33771406 16.67501997 161.9582285 16.62547654 156.57836914 16.5949707 C153.7429451 16.57719197 150.90852213 16.54242751 148.07348633 16.49243164 C143.98242482 16.42038403 139.89243835 16.39796684 135.80078125 16.37890625 C133.90819328 16.33716026 133.90819328 16.33716026 131.97737122 16.29457092 C124.3041947 16.31244668 119.3415362 17.22977029 114 23 Z " fill="#F2F2F2" transform="translate(0,0)"/>
<path d="M0 0 C93.06 0 186.12 0 282 0 C282 52.14 282 104.28 282 158 C188.94 158 95.88 158 0 158 C0 105.86 0 53.72 0 0 Z " fill="#FDFDFE" transform="translate(112,73)"/>
<path d="M0 0 C8.43734939 5.77223903 14.94868767 12.09574069 18.53515625 21.734375 C19.55697405 23.9790912 20.59004605 26.21806333 21.6328125 28.453125 C26.10615519 39.762355 24.13341273 52.8843794 19.53515625 63.734375 C19.2 64.59160156 18.86484375 65.44882813 18.51953125 66.33203125 C16.74866712 70.653783 15.0792869 73.60720089 11.53515625 76.734375 C10.63373908 77.85490588 9.73853028 78.98044372 8.84765625 80.109375 C2.01419355 88.12456433 -10.96156648 95.90454545 -21.5612793 96.93896484 C-23.94991332 97.03911615 -26.32417566 97.06314928 -28.71484375 97.046875 C-29.56240234 97.04196045 -30.40996094 97.0370459 -31.28320312 97.03198242 C-37.46994969 96.91607009 -42.74220345 96.18835443 -48.46484375 93.734375 C-49.35171875 93.40566406 -50.23859375 93.07695312 -51.15234375 92.73828125 C-62.57167837 88.15468722 -70.04772528 80.01538177 -76.46484375 69.734375 C-77.20927734 68.59742188 -77.20927734 68.59742188 -77.96875 67.4375 C-81.75897415 60.58936655 -83.02286728 54.61119386 -82.96484375 46.796875 C-82.95839844 45.88244629 -82.95195312 44.96801758 -82.9453125 44.02587891 C-82.5415235 28.7323705 -78.0406204 16.44299501 -67.1953125 5.4296875 C-47.87592869 -12.54030153 -22.16193866 -12.969581 0 0 Z " fill="#173045" transform="translate(283.46484375,107.265625)"/>
<path d="M0 0 C93.06 0 186.12 0 282 0 C282 52.14 282 104.28 282 158 C188.94 158 95.88 158 0 158 C0 105.86 0 53.72 0 0 Z M1 1 C1 50.5 1 100 1 151 C91.42 151 181.84 151 275 151 C275 101.5 275 52 275 1 C184.58 1 94.16 1 1 1 Z " fill="#DCDEDF" transform="translate(112,73)"/>
<path d="M0 0 C18.81 0 37.62 0 57 0 C57 13.86 57 27.72 57 42 C38.19 42 19.38 42 0 42 C0 28.14 0 14.28 0 0 Z " fill="#F5F5F5" transform="translate(299,0)"/>
<path d="M0 0 C18.81 0 37.62 0 57 0 C57 13.86 57 27.72 57 42 C38.19 42 19.38 42 0 42 C0 28.14 0 14.28 0 0 Z " fill="#F5F5F5" transform="translate(239,0)"/>
<path d="M0 0 C11.22 0 22.44 0 34 0 C34 19.14 34 38.28 34 58 C22.78 58 11.56 58 0 58 C0 38.86 0 19.72 0 0 Z " fill="#F4F4F4" transform="translate(424,110)"/>
<path d="M0 0 C12.87 0 25.74 0 39 0 C39 15.84 39 31.68 39 48 C29.6259375 48.0309375 29.6259375 48.0309375 20.0625 48.0625 C18.08773682 48.071604 16.11297363 48.08070801 14.07836914 48.09008789 C12.52229887 48.09300705 10.96622784 48.09555561 9.41015625 48.09765625 C8.18709778 48.1053302 8.18709778 48.1053302 6.93933105 48.11315918 C4.95919477 48.1134694 2.97915346 48.06238096 1 48 C0 47 0 47 -0.12025452 45.09544373 C-0.11803391 44.26271439 -0.11581329 43.42998505 -0.11352539 42.57202148 C-0.11344986 41.63112167 -0.11337433 40.69022186 -0.11329651 39.72080994 C-0.10813522 38.69790359 -0.10297394 37.67499725 -0.09765625 36.62109375 C-0.0962413 35.57929459 -0.09482635 34.53749542 -0.09336853 33.46412659 C-0.0877508 30.12188906 -0.0751953 26.77971743 -0.0625 23.4375 C-0.05748728 21.17773534 -0.05292398 18.91796963 -0.04882812 16.65820312 C-0.03862456 11.10542266 -0.01905264 5.55278548 0 0 Z " fill="#F4F4F4" transform="translate(419,0)"/>
<path d="M0 0 C19.14 0 38.28 0 58 0 C58 8.91 58 17.82 58 27 C38.86 27 19.72 27 0 27 C0 18.09 0 9.18 0 0 Z " fill="#F4F4F4" transform="translate(299,349)"/>
<path d="M0 0 C19.14 0 38.28 0 58 0 C58 8.91 58 17.82 58 27 C38.86 27 19.72 27 0 27 C0 18.09 0 9.18 0 0 Z " fill="#F4F4F4" transform="translate(239,349)"/>
<path d="M0 0 C19.14 0 38.28 0 58 0 C58 8.91 58 17.82 58 27 C38.86 27 19.72 27 0 27 C0 18.09 0 9.18 0 0 Z " fill="#F4F4F4" transform="translate(179,349)"/>
<path d="M0 0 C18.81 0 37.62 0 57 0 C57 8.91 57 17.82 57 27 C38.19 27 19.38 27 0 27 C0 18.09 0 9.18 0 0 Z " fill="#F5F5F5" transform="translate(359,349)"/>
<path d="M0 0 C8.25 0 16.5 0 25 0 C25 19.14 25 38.28 25 58 C16.75 58 8.5 58 0 58 C0 38.86 0 19.72 0 0 Z " fill="#F4F4F4" transform="translate(0,110)"/>
<path d="M0 0 C8.25 0 16.5 0 25 0 C25 18.81 25 37.62 25 57 C16.75 57 8.5 57 0 57 C0 38.19 0 19.38 0 0 Z " fill="#F4F4F4" transform="translate(0,170)"/>
<path d="M0 0 C12.87 0 25.74 0 39 0 C39 8.91 39 17.82 39 27 C26.13 27 13.26 27 0 27 C0 18.09 0 9.18 0 0 Z " fill="#F5F5F5" transform="translate(419,349)"/>
<path d="M0 0 C0.96873047 -0.03287109 1.93746094 -0.06574219 2.93554688 -0.09960938 C9.42803595 -0.14789699 14.51475038 0.77417177 19.3125 5.4375 C20.58790928 8.11493384 21.0485562 10.49480744 21.3125 13.4375 C21.456875 14.63375 21.60125 15.83 21.75 17.0625 C21.07553169 22.26554121 18.26113214 24.82959136 14.32421875 28.078125 C9.72426562 30.15436844 5.30153498 29.9505603 0.3125 29.9375 C-0.67234375 29.96585938 -1.6571875 29.99421875 -2.671875 30.0234375 C-9.90657733 30.04299075 -9.90657733 30.04299075 -13.73046875 27.078125 C-14.69919922 25.77101563 -14.69919922 25.77101563 -15.6875 24.4375 C-16.450625 23.53 -17.21375 22.6225 -18 21.6875 C-20.19891525 17.45255211 -20.78320784 14.11252012 -19.6875 9.4375 C-14.67620834 1.14294829 -9.13725217 0.05364336 0 0 Z " fill="#183247" transform="translate(352.6875,86.5625)"/>
<path d="M0 0 C2.75 1.3125 2.75 1.3125 5 4 C5.60852777 6.68802915 5.96327619 9.37239459 6.34375 12.1015625 C7.66505474 17.93732509 11.0604205 22.706947 16 26 C19.28245699 26.53923022 22.563861 26.88851301 25.87109375 27.2421875 C29.47702513 28.11553418 30.80196003 29.04456313 33 32 C33.53125 34 33.53125 34 33.5 36 C33.5103125 36.66 33.520625 37.32 33.53125 38 C32.74576836 40.95710735 31.4081797 42.15440346 29 44 C20.236196 45.72485868 13.29162708 43.17101248 5.9140625 38.75 C0.15632954 34.8673908 -3.38330776 29.85080086 -7 24 C-7.43699219 23.35160156 -7.87398437 22.70320313 -8.32421875 22.03515625 C-11.74710443 16.35436703 -12.41865386 9.44121721 -11 3 C-7.35497547 0.11309205 -4.61703909 -0.6733182 0 0 Z " fill="#F3F4F5" transform="translate(227,144)"/>
<path d="M0 0 C0.66 0 1.32 0 2 0 C2 13.86 2 27.72 2 42 C20.81 42 39.62 42 59 42 C59 28.14 59 14.28 59 0 C59.99 0 60.98 0 62 0 C62 13.86 62 27.72 62 42 C80.81 42 99.62 42 119 42 C119 28.14 119 14.28 119 0 C119.99 0 120.98 0 122 0 C122 14.19 122 28.38 122 43 C139.16 43 156.32 43 174 43 C174 43.33 174 43.66 174 44 C102.06 44 30.12 44 -44 44 C-44.33 38.06 -44.66 32.12 -45 26 C-43 29 -43 29 -43 43 C-28.81 43 -14.62 43 0 43 C0 28.81 0 14.62 0 0 Z " fill="#BDC2C6" transform="translate(237,0)"/>
<path d="M0 0 C0 8.91 0 17.82 0 27 C-14.19 27 -28.38 27 -43 27 C-38.50244464 20.25366695 -38.50244464 20.25366695 -35.453125 18.578125 C-34.78047607 18.19712646 -34.10782715 17.81612793 -33.41479492 17.42358398 C-32.34322144 16.84265991 -32.34322144 16.84265991 -31.25 16.25 C-29.72916881 15.39423319 -28.20967069 14.53609366 -26.69140625 13.67578125 C-25.91684082 13.23959473 -25.14227539 12.8034082 -24.34423828 12.35400391 C-19.8629467 9.76566365 -15.52091207 6.94962362 -11.17871094 4.13574219 C-7.45843177 1.7640883 -4.45805888 0 0 0 Z " fill="#F0F0F1" transform="translate(416,260)"/>
<path d="M0 0 C0.99 0 1.98 0 3 0 C3 17.16 3 34.32 3 52 C19.83 52 36.66 52 54 52 C54 34.84 54 17.68 54 0 C54.33 0 54.66 0 55 0 C55.33 19.47 55.66 38.94 56 59 C55.34 58.67 54.68 58.34 54 58 C54 56.68 54 55.36 54 54 C37.17 54 20.34 54 3 54 C3 62.91 3 71.82 3 81 C2.01 81 1.02 81 0 81 C0 72.09 0 63.18 0 54 C-18.81 54 -37.62 54 -57 54 C-57 53.34 -57 52.68 -57 52 C-38.19 52 -19.38 52 0 52 C0 34.84 0 17.68 0 0 Z " fill="#D4D5D5" transform="translate(57,295)"/>
<path d="M0 0 C0.99 0 1.98 0 3 0 C3 15.84 3 31.68 3 48 C11.25 48 19.5 48 28 48 C24.62754269 50.69796584 21.5777569 52.99396921 17.953125 55.234375 C17.02628906 55.80800781 16.09945312 56.38164063 15.14453125 56.97265625 C14.18933594 57.55917969 13.23414062 58.14570312 12.25 58.75 C11.27933594 59.35199219 10.30867188 59.95398437 9.30859375 60.57421875 C2.13300737 65 2.13300737 65 1 65 C1 60.05 1 55.1 1 50 C-18.14 50 -37.28 50 -57 50 C-57 49.34 -57 48.68 -57 48 C-38.19 48 -19.38 48 0 48 C0 32.16 0 16.32 0 0 Z " fill="#D0D0D0" transform="translate(57,0)"/>
<path d="M0 0 C0.66 0.33 1.32 0.66 2 1 C1.51391769 1.41413651 1.02783539 1.82827301 0.52702332 2.25495911 C-2.07248617 5.22560816 -1.48293893 9.05174879 -1.51171875 12.82421875 C-1.52966995 13.68561966 -1.54762115 14.54702057 -1.56611633 15.43452454 C-1.62029298 18.18546658 -1.65413823 20.93623441 -1.6875 23.6875 C-1.72066663 25.55275866 -1.75515567 27.4179943 -1.79101562 29.28320312 C-1.87602356 33.85534318 -1.94279943 38.42743091 -2 43 C-2.66 43 -3.32 43 -4 43 C-4 34.09 -4 25.18 -4 16 C-10.93 16 -17.86 16 -25 16 C-20.10633315 12.08506652 -15.16337529 8.90719156 -9.8125 5.6875 C-8.89791016 5.12482422 -7.98332031 4.56214844 -7.04101562 3.98242188 C-6.16767578 3.45583984 -5.29433594 2.92925781 -4.39453125 2.38671875 C-3.59893799 1.90420654 -2.80334473 1.42169434 -1.98364258 0.92456055 C-1.32904053 0.61945557 -0.67443848 0.31435059 0 0 Z " fill="#CFD0D1" transform="translate(181,333)"/>
<path d="M0 0 C0.66 0.33 1.32 0.66 2 1 C1.0479279 2.00596297 0.08812654 3.00461563 -0.875 4 C-1.40867187 4.556875 -1.94234375 5.11375 -2.4921875 5.6875 C-4 7 -4 7 -6 7 C-6.02335349 32.5819838 -6.04099124 58.16396601 -6.05181217 83.74595833 C-6.05696991 95.62393678 -6.0640027 107.50190861 -6.07543945 119.37988281 C-6.0854022 129.73191421 -6.09185723 140.08394081 -6.09408849 150.43597686 C-6.09539289 155.91799823 -6.09846167 161.40000588 -6.10573006 166.88202286 C-6.11251533 172.04144353 -6.11461183 177.20084483 -6.11310768 182.36026955 C-6.11338288 184.25411776 -6.11537313 186.14796663 -6.11920547 188.04181099 C-6.12418185 190.62776149 -6.12298369 193.21363887 -6.12025452 195.79959106 C-6.12462378 196.92315071 -6.12462378 196.92315071 -6.12908131 198.06940854 C-6.11744077 202.15124413 -5.79288971 205.99521504 -5 210 C-7 209 -7 209 -7.61664295 207.42814541 C-8.15739191 204.00309531 -8.14091318 200.60747032 -8.13371277 197.14967346 C-8.13597833 196.35349088 -8.13824388 195.5573083 -8.14057809 194.73699898 C-8.14691365 192.06626912 -8.14608901 189.39559006 -8.14526367 186.72485352 C-8.14825541 184.81121759 -8.15165797 182.89758228 -8.15544128 180.98394775 C-8.16428328 175.7835983 -8.16661946 170.5832653 -8.16725707 165.38290906 C-8.16820607 161.04379475 -8.17188422 156.70468428 -8.17542917 152.36557144 C-8.18357424 142.13034969 -8.18601333 131.89513673 -8.18530273 121.65991211 C-8.18470169 111.09555038 -8.19525868 100.53123968 -8.2110464 89.96689087 C-8.22411287 80.90098726 -8.22948702 71.83510035 -8.22884732 62.76918739 C-8.2285921 57.35263809 -8.23145662 51.93613413 -8.24202538 46.51959419 C-8.25169149 41.426583 -8.25179575 36.33366065 -8.24450874 31.24064636 C-8.2434611 29.37056283 -8.24583641 27.5004738 -8.2518692 25.6303997 C-8.25956662 23.07926474 -8.2549593 20.52843832 -8.24723816 17.97731018 C-8.25238172 17.23586795 -8.25752529 16.49442572 -8.26282471 15.73051554 C-8.23094155 10.96931592 -7.87621889 6.96857164 -4.4921875 3.41796875 C-2.24609375 1.70898438 -2.24609375 1.70898438 0 0 Z " fill="#5A6E7C" transform="translate(34,79)"/>
<path d="M0 0 C0.99 0 1.98 0 3 0 C3.33 15.51 3.66 31.02 4 47 C16.54 47.33 29.08 47.66 42 48 C42 48.66 42 49.32 42 50 C30.12 50 18.24 50 6 50 C5.67 50.66 5.34 51.32 5 52 C4.38125 51.21625 3.7625 50.4325 3.125 49.625 C1.10141339 47.03162353 1.10141339 47.03162353 -1 45 C-1.20254517 43.05111694 -1.20254517 43.05111694 -1.13525391 40.64208984 C-1.11508209 39.74130707 -1.09491028 38.84052429 -1.0741272 37.91244507 C-1.04193085 36.93844757 -1.0097345 35.96445007 -0.9765625 34.9609375 C-0.95153656 33.96494537 -0.92651062 32.96895325 -0.90072632 31.94277954 C-0.81837761 28.75318105 -0.72184546 25.56418811 -0.625 22.375 C-0.56677566 20.21617079 -0.50947207 18.05731653 -0.453125 15.8984375 C-0.31277691 10.59862118 -0.16077367 5.29923388 0 0 Z " fill="#DADADA" transform="translate(416,0)"/>
<path d="M0 0 C7.26 0 14.52 0 22 0 C18.24255878 3.75744122 14.92747705 6.09151793 10.4375 8.75 C9.76525391 9.16121094 9.09300781 9.57242188 8.40039062 9.99609375 C3.37558399 13 3.37558399 13 0 13 C0 8.71 0 4.42 0 0 Z " fill="#EEEFEF" transform="translate(59,50)"/>
<path d="M0 0 C0.99 0 1.98 0 3 0 C3 15.84 3 31.68 3 48 C2.01 48 1.02 48 0 48 C0 32.16 0 16.32 0 0 Z " fill="#DBDBDB" transform="translate(57,0)"/>
<path d="M0 0 C0.66 0.33 1.32 0.66 2 1 C1.34 1.66 0.68 2.32 0 3 C13.86 3.33 27.72 3.66 42 4 C42 4.66 42 5.32 42 6 C25.5 6 9 6 -8 6 C-5.39710397 3.91768317 -2.77350098 1.84900065 0 0 Z " fill="#CECFD0" transform="translate(374,283)"/>
<path d="M0 0 C0 3.3 0 6.6 0 10 C-4.62 10 -9.24 10 -14 10 C-10.60176991 4.33628319 -10.60176991 4.33628319 -7 2.1875 C-6.319375 1.76855469 -5.63875 1.34960938 -4.9375 0.91796875 C-3 0 -3 0 0 0 Z " fill="#EDEEEF" transform="translate(177,337)"/>
<path d="M0 0 C0.99 0 1.98 0 3 0 C3 8.91 3 17.82 3 27 C2.01 27 1.02 27 0 27 C0 18.09 0 9.18 0 0 Z " fill="#DCDCDC" transform="translate(416,349)"/>
<path d="M0 0 C12.87 0 25.74 0 39 0 C39 0.66 39 1.32 39 2 C27.12 2 15.24 2 3 2 C2.67 2.66 2.34 3.32 2 4 C1.34 2.68 0.68 1.36 0 0 Z " fill="#CECFCF" transform="translate(419,48)"/>
<path d="M0 0 C0.66 0 1.32 0 2 0 C2 5.94 2 11.88 2 18 C2.66 18.33 3.32 18.66 4 19 C2.68 19.33 1.36 19.66 0 20 C0 13.4 0 6.8 0 0 Z " fill="#D1D1D2" transform="translate(117,0)"/>
<path d="M0 0 C0.66 0.33 1.32 0.66 2 1 C-2.95 5.95 -7.9 10.9 -13 16 C-13 11.93645091 -11.47015238 10.94829419 -8.75 8 C-7.96109375 7.13375 -7.1721875 6.2675 -6.359375 5.375 C-4.3351828 3.33740256 -2.34982916 1.63841299 0 0 Z " fill="#405567" transform="translate(223,107)"/>
<path d="M0 0 C0.66 0.33 1.32 0.66 2 1 C1.0479279 2.00596297 0.08812654 3.00461563 -0.875 4 C-1.40867187 4.556875 -1.94234375 5.11375 -2.4921875 5.6875 C-4 7 -4 7 -6 7 C-6 8.65 -6 10.3 -6 12 C-6.33 12 -6.66 12 -7 12 C-7.4375 9.375 -7.4375 9.375 -7 6 C-4.9050512 3.66877878 -2.53926173 1.82671379 0 0 Z " fill="#4A5F6F" transform="translate(34,79)"/>
<path d="M0 0 C0.99 0 1.98 0 3 0 C2.67 4.95 2.34 9.9 2 15 C2.66 15.33 3.32 15.66 4 16 C3.01 16.33 2.02 16.66 1 17 C0.67 11.39 0.34 5.78 0 0 Z " fill="#C5C6C7" transform="translate(57,48)"/>
<path d="M0 0 C0.66 0.33 1.32 0.66 2 1 C0.88121617 2.17262904 -0.24523051 3.33795138 -1.375 4.5 C-2.00148438 5.1496875 -2.62796875 5.799375 -3.2734375 6.46875 C-5 8 -5 8 -7 8 C-5.50902342 4.2047869 -3.24299151 2.38957269 0 0 Z " fill="#4B6070" transform="translate(342,87)"/>
</svg>
